<svg width="128" height="128" xmlns="http://www.w3.org/2000/svg">

 <g>
  <title>background</title>
  <rect fill="none" id="canvas_background" height="402" width="582" y="-1" x="-1"/>
 </g>
 <g>
  <title>Layer 1</title>
  <rect id="svg_1" width="128" height="128" fill-rule="evenodd" fill="none" clip-rule="evenodd"/>
  <path id="Codepen_1_" fill-rule="evenodd" fill="#ffffff" d="m117,73.204l-13.76,-9.204l13.76,-9.204l0,18.408zm-47.5,39.016l0,-25.652l23.848,-15.948l19.248,12.872l-43.096,28.728zm-5.5,-35.208l-19.452,-13.012l19.452,-13.012l19.456,13.012l-19.456,13.012zm-5.5,35.208l-43.096,-28.728l19.252,-12.872l23.844,15.948l0,25.652zm-47.5,-57.424l13.764,9.204l-13.764,9.204l0,-18.408zm47.5,-39.016l0,25.652l-23.844,15.952l-19.252,-12.876l43.096,-28.728zm11,0l43.096,28.728l-19.248,12.876l-23.848,-15.952l0,-25.652zm58.452,28.004c-0.012,-0.084 -0.032,-0.16 -0.044,-0.24c-0.028,-0.156 -0.056,-0.312 -0.096,-0.46c-0.024,-0.092 -0.06,-0.18 -0.088,-0.268c-0.044,-0.136 -0.088,-0.268 -0.14,-0.4c-0.036,-0.092 -0.08,-0.184 -0.124,-0.268c-0.056,-0.128 -0.116,-0.248 -0.188,-0.364c-0.048,-0.088 -0.104,-0.172 -0.156,-0.256c-0.072,-0.116 -0.148,-0.228 -0.232,-0.336c-0.06,-0.08 -0.124,-0.16 -0.188,-0.236c-0.088,-0.104 -0.18,-0.204 -0.276,-0.3c-0.072,-0.072 -0.14,-0.148 -0.216,-0.212c-0.104,-0.092 -0.208,-0.18 -0.312,-0.264c-0.084,-0.064 -0.164,-0.128 -0.248,-0.188c-0.032,-0.02 -0.06,-0.048 -0.092,-0.068l-58.5,-39c-1.848,-1.232 -4.252,-1.232 -6.104,0l-58.496,39c-0.032,0.02 -0.06,0.048 -0.092,0.068c-0.088,0.06 -0.168,0.124 -0.248,0.188c-0.108,0.084 -0.212,0.172 -0.312,0.264c-0.076,0.064 -0.148,0.14 -0.22,0.212c-0.096,0.096 -0.188,0.196 -0.272,0.3c-0.068,0.076 -0.132,0.156 -0.192,0.236c-0.08,0.108 -0.156,0.22 -0.228,0.336c-0.056,0.084 -0.108,0.168 -0.16,0.256c-0.068,0.116 -0.128,0.236 -0.188,0.364c-0.04,0.084 -0.084,0.176 -0.12,0.268c-0.056,0.132 -0.1,0.264 -0.144,0.4c-0.028,0.088 -0.06,0.176 -0.084,0.268c-0.04,0.148 -0.068,0.304 -0.096,0.46c-0.016,0.08 -0.036,0.156 -0.044,0.24c-0.032,0.232 -0.052,0.472 -0.052,0.716l0,39c0,0.24 0.02,0.48 0.052,0.72c0.008,0.076 0.028,0.156 0.044,0.236c0.028,0.156 0.056,0.308 0.096,0.46c0.024,0.092 0.056,0.18 0.084,0.268c0.044,0.132 0.088,0.268 0.144,0.404c0.036,0.088 0.08,0.176 0.12,0.264c0.06,0.124 0.12,0.244 0.188,0.368c0.052,0.084 0.104,0.168 0.16,0.252c0.072,0.116 0.148,0.224 0.228,0.332c0.06,0.084 0.124,0.164 0.192,0.24c0.084,0.1 0.176,0.204 0.272,0.296c0.072,0.076 0.144,0.148 0.22,0.216c0.1,0.092 0.204,0.18 0.312,0.264c0.08,0.064 0.16,0.128 0.248,0.188c0.032,0.02 0.06,0.048 0.092,0.068l58.496,39c0.924,0.616 1.988,0.924 3.052,0.924s2.128,-0.308 3.052,-0.924l58.5,-39c0.032,-0.02 0.06,-0.048 0.092,-0.068c0.084,-0.06 0.164,-0.124 0.248,-0.188c0.104,-0.084 0.208,-0.172 0.312,-0.264c0.076,-0.068 0.144,-0.14 0.216,-0.216c0.096,-0.092 0.188,-0.196 0.276,-0.296c0.064,-0.076 0.128,-0.156 0.188,-0.24c0.084,-0.108 0.16,-0.216 0.232,-0.332c0.052,-0.084 0.108,-0.168 0.156,-0.252c0.072,-0.124 0.132,-0.244 0.188,-0.368c0.044,-0.088 0.088,-0.176 0.124,-0.264c0.052,-0.136 0.096,-0.272 0.14,-0.404c0.028,-0.088 0.064,-0.176 0.088,-0.268c0.04,-0.152 0.068,-0.304 0.096,-0.46c0.012,-0.08 0.032,-0.16 0.044,-0.236c0.032,-0.24 0.048,-0.48 0.048,-0.72l0,-39c0,-0.244 -0.016,-0.484 -0.048,-0.716z" clip-rule="evenodd"/>
 </g>
</svg>